# xmcd
#
# Track frame offsets:
#	150
#	8049
#	17213
#	28330
#	37001
#	47716
#	59267
#	68923
#	78040
#	88166
#	102279
#	109177
#	120231
#	130644
#	138443
#	147943
#	156646
#	168009
#	178133
#	186103
#	196323
#
# Disc length: 2742 seconds
#
# Revision: 3
# Processed by: cddbd v1.5.2PL0 Copyright (c) Steve Scherf et al.
# Submitted via: EasyCDDAExtractor 11.1.0.1
#
DISCID=1f0ab415
DTITLE=Various Artist - The Singles: Collection Regal Zonophone And Beyond - 
DTITLE=Disc 2
DYEAR=2002
DGENRE=Country
TTITLE0=Chad Morgan - Take Warning Freind
TTITLE1=Chad Morgan - Funny Darned Cattle, These Women
TTITLE2=Chad Morgan - You Just Can't Win
TTITLE3=Chad Morgan - Here I Am
TTITLE4=Chad Morgan - Since Dear Mother Died
TTITLE5=Chad Morgan - Come In Sucker
TTITLE6=Chad Morgan - The Rooster Crowed
TTITLE7=Chad Morgan - The Farmyard Yodel
TTITLE8=Chad Morgan - You're Gettin' Old Son
TTITLE9=Chad Morgan - There's No Night Out At The Jail
TTITLE10=Chad Morgan - How Dare You Go To Bed
TTITLE11=Chad Morgan - Oh So Nice In The Nuthouse
TTITLE12=Chad Morgan - Nothing Now Stirs At The Farmhouse
TTITLE13=Chad Morgan - The Shearer's Jamboree
TTITLE14=Chad Morgan - The Party In The Local Hotel
TTITLE15=Chad Morgan - The Horrors
TTITLE16=Chad Morgan - Buy Buy Buy
TTITLE17=Chad Morgan - Ode To The Little Brown Shack
TTITLE18=Chad Morgan with Eddie Tapp - No Help Wanted
TTITLE19=Chad Morgan - Truckloads Of Starvin' Kangaroos
TTITLE20=Chad Morgan - Things I See (Through The Bottom Of My Glass)
EXTD=
EXTT0=
EXTT1=
EXTT2=
EXTT3=
EXTT4=
EXTT5=
EXTT6=
EXTT7=
EXTT8=
EXTT9=
EXTT10=
EXTT11=
EXTT12=
EXTT13=
EXTT14=
EXTT15=
EXTT16=
EXTT17=
EXTT18=
EXTT19=
EXTT20=
PLAYORDER=
